<svg width="200" height="100" viewBox="0 0 200 100" fill="none" xmlns="http://www.w3.org/2000/svg">
<path fill-rule="evenodd" clip-rule="evenodd" d="M126.603 59.5053H131.671L126.26 52.2196L131.249 46.4122H126.18L122.802 50.7413V40.4992H118.578V59.5053H122.802V56.2848L123.673 55.2553L126.603 59.5053ZM87.3417 40.9216H83.1181V48.3128H78.0499V40.9216H73.8263V59.5053H78.0499V52.114H83.1181V59.5053H87.3417V40.9216ZM98.5249 59.5053H102.115V52.4836C102.115 47.7321 99.2904 45.9898 96.2019 45.9898C94.1429 45.9898 92.3215 46.6234 91.3448 47.2569L92.6119 50.2926C93.351 49.8702 94.5653 49.4743 95.5684 49.4743C97.0466 49.4743 97.7858 50.319 97.8386 51.85C94.1165 50.3982 89.8666 52.0084 89.8666 55.5193C89.8666 57.8686 91.5032 59.9276 94.4597 59.9276C96.1491 59.9276 97.5482 59.1357 98.3137 58.027L98.5249 59.5053ZM94.0901 55.3873C94.0901 53.9618 95.9116 53.5659 97.8914 54.173C97.7066 55.6512 96.7563 56.8655 95.5948 56.8655C94.7765 56.8655 94.0901 56.4168 94.0901 55.3873ZM111.511 56.1264C112.461 56.1264 113.095 55.7832 113.675 55.1497L116.051 57.7894C115.022 59.0565 113.385 59.9276 111.247 59.9276C106.971 59.9276 104.225 56.8127 104.225 52.9587C104.225 49.1047 106.971 45.9898 111.247 45.9898C113.385 45.9898 115.022 46.8609 116.051 48.128L113.675 50.7677C113.095 50.1342 112.461 49.791 111.511 49.791C109.769 49.791 108.449 51.2165 108.449 52.9587C108.449 54.7009 109.769 56.1264 111.511 56.1264ZM145.164 52.4836C145.164 53.0379 145.111 53.8562 144.953 54.3314H136.189C136.559 55.3873 137.509 56.1264 139.146 56.1264C140.096 56.1264 140.861 55.7832 141.521 55.2553L144.055 57.7366C142.973 58.9509 141.099 59.9276 138.987 59.9276C134.711 59.9276 131.86 56.8127 131.86 52.9587C131.86 49.1047 134.5 45.9898 138.67 45.9898C142.392 45.9898 145.138 48.524 145.164 52.4836ZM138.776 49.791C137.271 49.791 136.479 50.5302 136.136 51.5861H141.073C140.861 50.583 140.149 49.791 138.776 49.791ZM160.801 40.4992H156.577V47.7321C155.891 46.7554 154.571 45.9898 152.961 45.9898C149.476 45.9898 146.863 49.1047 146.863 52.9587C146.863 56.8127 149.476 59.9276 152.961 59.9276C154.571 59.9276 155.891 59.1621 156.577 58.1854V59.5053H160.801V40.4992ZM156.577 52.9587C156.577 54.7009 155.363 56.1264 153.832 56.1264C152.301 56.1264 151.087 54.7009 151.087 52.9587C151.087 51.2165 152.301 49.791 153.832 49.791C155.363 49.791 156.577 51.2165 156.577 52.9587ZM38.7938 55.9609C39.0773 55.0329 39.2191 53.9631 39.2191 52.7515V48.266C39.2191 47.0544 39.0773 45.9889 38.7938 45.0695C38.5102 44.1415 38.1063 43.3638 37.5822 42.7365C37.0494 42.1178 36.4049 41.6495 35.6488 41.3316C34.8926 41.0136 34.0419 40.8547 33.0967 40.8547C32.1601 40.8547 31.3137 41.0136 30.5575 41.3316C29.8099 41.6495 29.174 42.1178 28.6499 42.7365C28.1171 43.3638 27.709 44.1415 27.4254 45.0695C27.1418 45.9889 27 47.0544 27 48.266V52.7515C27 53.9631 27.1418 55.0329 27.4254 55.9609C27.7175 56.8804 28.13 57.6494 28.6628 58.2681C29.1869 58.8954 29.8271 59.368 30.5833 59.686C31.3394 60.0039 32.1858 60.1629 33.1225 60.1629C34.0677 60.1629 34.9184 60.0039 35.6745 59.686C36.4307 59.368 37.0709 58.8954 37.5951 58.2681C38.1192 57.6494 38.5188 56.8804 38.7938 55.9609ZM35.6101 47.4798L30.609 51.2048V50.599V49.7741V47.6989C30.609 47.0029 30.6606 46.4014 30.7637 45.8944C30.8754 45.3874 31.043 44.975 31.2664 44.657C31.4726 44.3563 31.7261 44.1329 32.0269 43.9868C32.3362 43.8321 32.6928 43.7548 33.0967 43.7548C33.4576 43.7548 33.7798 43.8149 34.0634 43.9352C34.3555 44.0469 34.6004 44.2231 34.7981 44.4637C35.0559 44.7644 35.2492 45.1683 35.3781 45.6753C35.5156 46.1737 35.5929 46.7752 35.6101 47.4798ZM35.6101 51.1146V53.2929C35.6101 53.9889 35.5542 54.5947 35.4425 55.1103C35.3394 55.6172 35.1805 56.034 34.9656 56.3605C34.7594 56.6699 34.5016 56.9019 34.1923 57.0565C33.8829 57.2026 33.5263 57.2757 33.1225 57.2757C32.6842 57.2757 32.3061 57.1897 31.9882 57.0179C31.6703 56.846 31.4082 56.5839 31.202 56.2316C31.0215 55.9395 30.8797 55.5743 30.7766 55.136C30.6821 54.6978 30.6262 54.1951 30.609 53.628L35.6101 49.9159V50.4959V51.1146ZM52.3017 45.946L49.2341 50.3025L46.218 45.946H42.3641L47.03 52.7902L42.1836 59.8922H46.0633L49.247 55.3294L52.4564 59.8922H56.3232L51.4768 52.7902L56.1557 45.946H52.3017Z" fill="#0B0B0B"/>
<path fill-rule="evenodd" clip-rule="evenodd" d="M60.0105 33.9387H70.0852V36.6335H63.7053V63.0296H70.0852V65.7244H60.0105V33.9387ZM170.53 36.6335H164.15V33.9387H174.225V65.7244H164.15V63.0296H170.53V36.6335Z" fill="#FF8F28"/>
</svg>
